<svg width="32" height="32" viewBox="0 0 32 32" fill="none" xmlns="http://www.w3.org/2000/svg">
<g clip-path="url(#clip0_2033_1471)">
<rect width="32" height="32" rx="16" fill="#9ACEF3" fill-opacity="0.2"/>
<g clip-path="url(#clip1_2033_1471)">
<path d="M19.6668 16.6666L19.1439 17.7126C18.9669 18.0666 18.8784 18.2436 18.7601 18.3969C18.6552 18.533 18.5332 18.6551 18.3971 18.76C18.2438 18.8782 18.0668 18.9667 17.7128 19.1437L16.6668 19.6666L17.7128 20.1896C18.0668 20.3666 18.2438 20.4551 18.3971 20.5733C18.5332 20.6782 18.6552 20.8003 18.7601 20.9363C18.8784 21.0897 18.9669 21.2667 19.1439 21.6207L19.6668 22.6666L20.1898 21.6207C20.3668 21.2667 20.4553 21.0897 20.5735 20.9363C20.6784 20.8003 20.8004 20.6782 20.9365 20.5733C21.0899 20.4551 21.2669 20.3666 21.6209 20.1896L22.6668 19.6666L21.6209 19.1437C21.2669 18.9667 21.0899 18.8782 20.9365 18.76C20.8004 18.6551 20.6784 18.533 20.5735 18.3969C20.4553 18.2436 20.3668 18.0666 20.1898 17.7126L19.6668 16.6666Z" stroke="#D7DFE4" stroke-width="1.5" stroke-linecap="round" stroke-linejoin="round"/>
<path d="M14.0002 9.33331L13.2144 11.3763C13.0264 11.8651 12.9324 12.1095 12.7862 12.3151C12.6567 12.4973 12.4975 12.6565 12.3153 12.786C12.1097 12.9322 11.8653 13.0262 11.3764 13.2142L9.3335 14L11.3764 14.7857C11.8653 14.9737 12.1097 15.0677 12.3153 15.2139C12.4975 15.3435 12.6567 15.5027 12.7862 15.6849C12.9324 15.8905 13.0264 16.1349 13.2144 16.6237L14.0002 18.6666L14.7859 16.6237C14.9739 16.1349 15.0679 15.8905 15.2141 15.6849C15.3437 15.5027 15.5029 15.3435 15.6851 15.2139C15.8907 15.0677 16.1351 14.9737 16.6239 14.7857L18.6668 14L16.6239 13.2142C16.1351 13.0262 15.8907 12.9322 15.6851 12.786C15.5029 12.6565 15.3437 12.4973 15.2141 12.3151C15.0679 12.1095 14.9739 11.8651 14.7859 11.3763L14.0002 9.33331Z" stroke="#D7DFE4" stroke-width="1.5" stroke-linecap="round" stroke-linejoin="round"/>
</g>
<rect x="0.170898" y="-1" width="31.9631" height="33.1909" rx="15.9815" fill="#F4320B"/>
<path d="M14.0305 11.3692C14.208 10.7907 15.027 10.7907 15.2044 11.3692L16.0353 14.0777C16.0951 14.2725 16.2475 14.4249 16.4422 14.4846L19.1507 15.3155C19.7293 15.493 19.7293 16.312 19.1507 16.4895L16.4422 17.3204C16.2475 17.3801 16.0951 17.5325 16.0353 17.7273L15.2044 20.4358C15.027 21.0143 14.208 21.0143 14.0305 20.4358L13.1996 17.7273C13.1399 17.5325 12.9874 17.3801 12.7927 17.3204L10.0842 16.4895C9.50568 16.312 9.50568 15.493 10.0842 15.3155L12.7927 14.4846C12.9874 14.4249 13.1399 14.2725 13.1996 14.0777L14.0305 11.3692Z" fill="#FCC1B6"/>
<path d="M18.9983 7.72894C19.066 7.50855 19.3779 7.50855 19.4456 7.72894L19.7621 8.76075C19.7848 8.83493 19.8429 8.893 19.9171 8.91576L20.9489 9.23229C21.1693 9.29991 21.1693 9.61189 20.9489 9.6795L19.9171 9.99604C19.8429 10.0188 19.7848 10.0769 19.7621 10.151L19.4456 11.1829C19.3779 11.4032 19.066 11.4032 18.9983 11.1829L18.6818 10.151C18.6591 10.0769 18.601 10.0188 18.5268 9.99604L17.495 9.6795C17.2746 9.61189 17.2746 9.29991 17.495 9.23229L18.5268 8.91576C18.601 8.893 18.6591 8.83493 18.6818 8.76075L18.9983 7.72894Z" fill="#FCC1B6"/>
<path d="M20.4497 18.4396C20.5427 18.1365 20.9716 18.1365 21.0646 18.4396L21.4998 19.8583C21.5311 19.9603 21.611 20.0402 21.713 20.0715L23.1317 20.5067C23.4348 20.5997 23.4348 21.0286 23.1317 21.1216L21.713 21.5568C21.611 21.5881 21.5311 21.668 21.4998 21.77L21.0646 23.1887C20.9716 23.4918 20.5427 23.4918 20.4497 23.1887L20.0145 21.77C19.9832 21.668 19.9033 21.5881 19.8013 21.5568L18.3826 21.1216C18.0795 21.0286 18.0795 20.5997 18.3826 20.5067L19.8013 20.0715C19.9033 20.0402 19.9832 19.9603 20.0145 19.8583L20.4497 18.4396Z" fill="#FCC1B6"/>
</g>
<rect x="0.5" y="0.5" width="31" height="31" rx="15.5" stroke="#91A6B6" stroke-opacity="0.2"/>
<defs>
<clipPath id="clip0_2033_1471">
<rect width="32" height="32" rx="16" fill="white"/>
</clipPath>
<clipPath id="clip1_2033_1471">
<rect width="16" height="16" fill="white" transform="translate(8 8)"/>
</clipPath>
</defs>
</svg>
